<?xml version="1.0" encoding="UTF-8"?>
<svg xmlns="http://www.w3.org/2000/svg" xmlns:xlink="http://www.w3.org/1999/xlink" width="24px" height="24px" viewBox="0 0 24 24" version="1.1">
    <path d="M 3.183594 17.503906 L 10.515625 17.503906 L 18.277344 23.050781 C 18.394531 23.132812 18.53125 23.164062 18.667969 23.164062 C 18.769531 23.164062 18.875 23.136719 18.972656 23.085938 C 19.191406 22.972656 19.332031 22.738281 19.332031 22.488281 L 19.332031 17.503906 L 20.574219 17.503906 C 22.464844 17.503906 24 16.035156 24 14.285156 L 24 4.113281 C 24 2.316406 22.429688 0.835938 20.574219 0.835938 L 3.183594 0.835938 C 1.398438 0.835938 0 2.253906 0 4.113281 L 0 14.285156 C 0 16.097656 1.367188 17.503906 3.183594 17.503906 Z M 1.332031 4.113281 C 1.332031 3 2.144531 2.167969 3.183594 2.167969 L 20.574219 2.167969 C 21.6875 2.167969 22.667969 3.054688 22.667969 4.113281 L 22.667969 14.285156 C 22.667969 15.300781 21.726562 16.167969 20.574219 16.167969 L 18.667969 16.167969 C 18.296875 16.167969 18 16.425781 18 16.796875 L 18 21.191406 L 11.117188 16.273438 C 11.003906 16.191406 10.871094 16.167969 10.730469 16.167969 L 3.183594 16.167969 C 2.09375 16.167969 1.332031 15.371094 1.332031 14.285156 Z M 4.332031 6.167969 L 19.332031 6.167969 C 19.703125 6.167969 20 5.871094 20 5.503906 C 20 5.132812 19.703125 4.835938 19.332031 4.835938 L 4.332031 4.835938 C 3.964844 4.835938 3.667969 5.132812 3.667969 5.503906 C 3.667969 5.871094 3.964844 6.167969 4.332031 6.167969 Z M 4.332031 9.167969 L 13.332031 9.167969 C 13.703125 9.167969 14 8.871094 14 8.503906 C 14 8.132812 13.703125 7.835938 13.332031 7.835938 L 4.332031 7.835938 C 3.964844 7.835938 3.667969 8.132812 3.667969 8.503906 C 3.667969 8.871094 3.964844 9.167969 4.332031 9.167969 Z M 4.332031 9.167969 "/>
</svg>
