<?xml version="1.0" encoding="UTF-8"?>
<svg xmlns="http://www.w3.org/2000/svg" xmlns:xlink="http://www.w3.org/1999/xlink" width="24px" height="24px" viewBox="0 0 24 24" version="1.1">
    <path d="M 18.75 9 C 18.75 9.828125 18.078125 10.5 17.25 10.5 C 16.421875 10.5 15.75 9.828125 15.75 9 C 15.75 8.171875 16.421875 7.5 17.25 7.5 C 18.078125 7.5 18.75 8.171875 18.75 9 Z M 18.75 9 "/>
    <path d="M 21 3.75 L 12.179688 3.75 C 10.675781 1.859375 8.183594 1.054688 5.859375 1.710938 C 3.53125 2.363281 1.824219 4.351562 1.53125 6.75 C 1.234375 9.144531 2.402344 11.488281 4.5 12.691406 L 4.5 20.25 C 4.5 21.078125 5.171875 21.75 6 21.75 L 21 21.75 C 21.828125 21.75 22.5 21.078125 22.5 20.25 L 22.5 5.25 C 22.5 4.421875 21.828125 3.75 21 3.75 Z M 3 7.5 C 3.003906 5.464844 4.371094 3.6875 6.335938 3.160156 C 8.300781 2.636719 10.371094 3.492188 11.390625 5.25 L 6 5.25 L 6 6.75 L 11.933594 6.75 C 11.972656 6.996094 11.996094 7.25 12 7.5 C 11.996094 7.75 11.972656 8.003906 11.933594 8.25 L 7.5 8.25 L 7.5 9.75 L 11.390625 9.75 C 10.371094 11.507812 8.300781 12.363281 6.335938 11.839844 C 4.371094 11.3125 3.003906 9.535156 3 7.5 Z M 21 20.25 L 6 20.25 L 9.75 16.5 L 10.941406 17.691406 C 11.527344 18.273438 12.472656 18.273438 13.058594 17.691406 L 17.25 13.5 L 21 17.25 Z M 21 15.128906 L 18.308594 12.433594 C 17.722656 11.851562 16.777344 11.851562 16.191406 12.433594 L 12 16.628906 L 10.808594 15.433594 C 10.222656 14.851562 9.277344 14.851562 8.691406 15.433594 L 6 18.128906 L 6 13.304688 C 6.488281 13.429688 6.992188 13.496094 7.5 13.5 C 10.8125 13.5 13.5 10.8125 13.5 7.5 C 13.5 6.726562 13.351562 5.964844 13.058594 5.25 L 21 5.25 Z M 21 15.128906 "/>
</svg>
