<?xml version="1.0" encoding="UTF-8"?>
<svg xmlns="http://www.w3.org/2000/svg" xmlns:xlink="http://www.w3.org/1999/xlink" width="24px" height="24px" viewBox="0 0 24 24" version="1.1">
    <path d="M 20.886719 21.75 L 22.5 21.75 L 18 10.5 L 16.238281 10.5 L 11.738281 21.75 L 13.351562 21.75 L 14.550781 18.75 L 19.6875 18.75 Z M 15.148438 17.25 L 17.113281 12.328125 L 19.085938 17.25 Z M 15.148438 17.25 "/>
    <path d="M 13.5 5.25 L 13.5 3.75 L 8.25 3.75 L 8.25 1.5 L 6.75 1.5 L 6.75 3.75 L 1.5 3.75 L 1.5 5.25 L 9.554688 5.25 C 9.140625 6.964844 8.320312 8.554688 7.164062 9.886719 C 6.410156 8.949219 5.828125 7.886719 5.445312 6.75 L 3.871094 6.75 C 4.34375 8.277344 5.105469 9.699219 6.121094 10.933594 C 5 12.023438 3.6875 12.890625 2.25 13.5 L 2.8125 14.894531 C 4.425781 14.214844 5.898438 13.230469 7.148438 12 C 8.375 13.246094 9.84375 14.226562 11.46875 14.878906 L 12 13.5 C 10.554688 12.941406 9.246094 12.078125 8.160156 10.972656 C 9.597656 9.335938 10.605469 7.371094 11.101562 5.25 Z M 13.5 5.25 "/>
</svg>
